<?xml version="1.0" standalone="no"?>
<!DOCTYPE svg PUBLIC "-//W3C//DTD SVG 20010904//EN"
 "http://www.w3.org/TR/2001/REC-SVG-20010904/DTD/svg10.dtd">
<svg version="1.0" xmlns="http://www.w3.org/2000/svg"
 width="400.000000pt" height="400.000000pt" viewBox="0 0 400.000000 400.000000"
 preserveAspectRatio="xMidYMid meet">
<metadata>
Created by potrace 1.11, written by Peter Selinger 2001-2013
</metadata>
<g transform="translate(0.000000,400.000000) scale(0.100000,-0.100000)"
fill="#000000" stroke="none">
<path d="M0 2000 l0 -2000 2000 0 2000 0 0 2000 0 2000 -2000 0 -2000 0 0
-2000z m2518 1053 l3 -133 129 0 130 0 0 -130 0 -129 133 -3 132 -3 3 -512 2
-513 -125 0 -125 0 -2 388 -3 387 -137 3 -138 3 0 -666 0 -665 130 0 130 0 0
-125 0 -125 -255 0 -255 0 -2 398 -3 397 -265 0 -265 0 -3 -397 -2 -398 -255
0 -255 0 0 125 0 125 130 0 130 0 0 665 0 666 -137 -3 -138 -3 -3 -387 -2
-388 -125 0 -125 0 2 513 3 512 133 3 132 3 0 129 0 130 130 0 130 0 0 128 c0
71 3 132 7 135 3 4 236 6 517 5 l511 -3 3 -132z"/>
<path d="M1737 2933 c-4 -3 -7 -66 -7 -140 l0 -133 270 0 271 0 -3 138 -3 137
-261 3 c-143 1 -263 -1 -267 -5z"/>
</g>
</svg>
